<svg width="34" height="34" viewBox="0 0 34 34" fill="none" xmlns="http://www.w3.org/2000/svg">
<g filter="url(#filter0_d_0_195)">
<path d="M26.8224 0.500061H7.17955C5.70075 0.500061 4.50098 1.69984 4.50098 3.17863V22.8215C4.50098 24.3003 5.70075 25.5001 7.17955 25.5001H26.8224C28.3012 25.5001 29.501 24.3003 29.501 22.8215V3.17863C29.501 1.69984 28.3012 0.500061 26.8224 0.500061ZM19.9753 21.9119C19.5066 21.9956 19.3336 21.7054 19.3336 21.4655C19.3336 21.1641 19.3447 19.6239 19.3447 18.3795C19.3447 17.509 19.0545 16.9565 18.7141 16.6664C20.7789 16.4376 22.9552 16.153 22.9552 12.5871C22.9552 11.5715 22.5925 11.0637 22.001 10.4108C22.0958 10.1708 22.4139 9.1831 21.9061 7.89962C21.1304 7.65966 19.3559 8.8985 19.3559 8.8985C18.6193 8.69203 17.8213 8.586 17.0345 8.586C16.2476 8.586 15.4496 8.69203 14.713 8.8985C14.713 8.8985 12.9385 7.65966 12.1628 7.89962C11.655 9.17752 11.9675 10.1652 12.0679 10.4108C11.4764 11.0637 11.1974 11.5715 11.1974 12.5871C11.1974 16.1362 13.2789 16.4376 15.3436 16.6664C15.0758 16.9063 14.8358 17.3193 14.7521 17.9108C14.222 18.1507 12.8659 18.5637 12.0568 17.1351C11.549 16.2534 10.6338 16.1809 10.6338 16.1809C9.72977 16.1697 10.5724 16.7501 10.5724 16.7501C11.1751 17.0291 11.5992 18.1005 11.5992 18.1005C12.1405 19.7579 14.7298 19.1998 14.7298 19.1998C14.7298 19.9755 14.7409 21.2367 14.7409 21.4655C14.7409 21.7054 14.5735 21.9956 14.0992 21.9119C10.4162 20.6786 7.83803 17.1742 7.83803 13.0782C7.83803 7.95542 11.7554 4.06591 16.8782 4.06591C22.001 4.06591 26.1528 7.95542 26.1528 13.0782C26.1583 17.1742 23.6583 20.6842 19.9753 21.9119ZM14.501 18.5023C14.3949 18.5246 14.2945 18.48 14.2833 18.4074C14.2722 18.3237 14.3447 18.2512 14.4508 18.2289C14.5568 18.2177 14.6572 18.2623 14.6684 18.3349C14.6851 18.4074 14.6126 18.48 14.501 18.5023ZM13.9708 18.4521C13.9708 18.5246 13.8871 18.586 13.7755 18.586C13.6528 18.5972 13.5691 18.5358 13.5691 18.4521C13.5691 18.3795 13.6528 18.3181 13.7644 18.3181C13.8704 18.307 13.9708 18.3684 13.9708 18.4521ZM13.2063 18.3907C13.184 18.4632 13.0724 18.4967 12.9775 18.4632C12.8715 18.4409 12.799 18.3572 12.8213 18.2847C12.8436 18.2121 12.9552 18.1786 13.0501 18.201C13.1617 18.2344 13.2342 18.3181 13.2063 18.3907ZM12.5199 18.0893C12.4697 18.1507 12.3637 18.1396 12.28 18.0559C12.1963 17.9833 12.174 17.8773 12.2298 17.8271C12.28 17.7657 12.386 17.7768 12.4697 17.8606C12.5423 17.9331 12.5702 18.0447 12.5199 18.0893ZM12.0121 17.5815C11.9619 17.615 11.867 17.5815 11.8057 17.4978C11.7443 17.4141 11.7443 17.3193 11.8057 17.2802C11.867 17.23 11.9619 17.269 12.0121 17.3527C12.0735 17.4364 12.0735 17.5369 12.0121 17.5815ZM11.6494 17.0402C11.5992 17.0905 11.5155 17.0626 11.4541 17.0068C11.3927 16.9342 11.3816 16.8505 11.4318 16.8114C11.482 16.7612 11.5657 16.7891 11.6271 16.8449C11.6885 16.9175 11.6996 17.0012 11.6494 17.0402ZM11.2755 16.6273C11.2532 16.6775 11.1807 16.6887 11.1193 16.6496C11.0467 16.6161 11.0133 16.5547 11.0356 16.5045C11.0579 16.471 11.1193 16.4543 11.1918 16.4822C11.2644 16.5213 11.2979 16.5827 11.2755 16.6273Z" fill="#918E9B"/>
</g>
<defs>
<filter id="filter0_d_0_195" x="0.500977" y="0.500061" width="33" height="33" filterUnits="userSpaceOnUse" color-interpolation-filters="sRGB">
<feFlood flood-opacity="0" result="BackgroundImageFix"/>
<feColorMatrix in="SourceAlpha" type="matrix" values="0 0 0 0 0 0 0 0 0 0 0 0 0 0 0 0 0 0 127 0" result="hardAlpha"/>
<feOffset dy="4"/>
<feGaussianBlur stdDeviation="2"/>
<feComposite in2="hardAlpha" operator="out"/>
<feColorMatrix type="matrix" values="0 0 0 0 0 0 0 0 0 0 0 0 0 0 0 0 0 0 0.25 0"/>
<feBlend mode="normal" in2="BackgroundImageFix" result="effect1_dropShadow_0_195"/>
<feBlend mode="normal" in="SourceGraphic" in2="effect1_dropShadow_0_195" result="shape"/>
</filter>
</defs>
</svg>
